<svg xmlns="http://www.w3.org/2000/svg" xmlns:xlink="http://www.w3.org/1999/xlink" width="500" zoomAndPan="magnify" viewBox="0 0 375 374.999991" height="500" preserveAspectRatio="xMidYMid meet" version="1.2"><defs><clipPath id="4c0c7abece"><path d="M 69 2 L 367.5 2 L 367.5 375 L 69 375 Z M 69 2 "/></clipPath></defs><g id="bc8fab8785"><path style=" stroke:none;fill-rule:nonzero;fill:#ffffff;fill-opacity:1;" d="M 209.222656 210 C 173.296875 210 135.015625 225.515625 131.847656 287.585938 L 286.597656 287.585938 C 283.445312 225.515625 245.160156 210 209.222656 210 Z M 209.222656 210 "/><path style=" stroke:none;fill-rule:nonzero;fill:#ffffff;fill-opacity:1;" d="M 57.15625 2.070312 L 30.777344 2.070312 C 26.480469 2.070312 19.914062 5.558594 19.914062 9.828125 L 19.914062 366.722656 C 19.914062 371.042969 26.480469 374.484375 30.777344 374.484375 L 57.15625 374.484375 Z M 57.15625 2.070312 "/><g clip-rule="nonzero" clip-path="url(#4c0c7abece)"><path style=" stroke:none;fill-rule:nonzero;fill:#ffffff;fill-opacity:1;" d="M 317.84375 2.070312 L 69.570312 2.070312 L 69.570312 374.484375 L 333.363281 374.484375 C 350.46875 374.484375 367.5 360.554688 367.5 343.449219 L 367.5 48.621094 C 367.5 22.949219 343.515625 2.070312 317.84375 2.070312 Z M 209.222656 79.65625 C 234.894531 79.65625 255.777344 100.535156 255.777344 126.207031 C 255.777344 151.878906 234.894531 172.757812 209.222656 172.757812 C 183.550781 172.757812 162.671875 151.878906 162.671875 126.207031 C 162.671875 100.535156 183.550781 79.65625 209.222656 79.65625 Z M 294.878906 300 C 294.765625 300 294.667969 300 294.570312 300 L 123.878906 300 C 119.585938 300 116.121094 294.984375 116.121094 290.691406 C 116.121094 229.414062 152.65625 189.046875 209.222656 189.046875 C 265.097656 189.046875 301.433594 227.316406 302.316406 287.277344 C 302.527344 288.007812 302.636719 290.117188 302.636719 290.886719 C 302.636719 295.171875 299.160156 300 294.878906 300 Z M 294.878906 300 "/></g><path style=" stroke:none;fill-rule:nonzero;fill:#ffffff;fill-opacity:1;" d="M 209.222656 157.242188 C 226.332031 157.242188 240.257812 143.3125 240.257812 126.207031 C 240.257812 109.101562 226.332031 95.171875 209.222656 95.171875 C 192.105469 95.171875 178.191406 109.101562 178.191406 126.207031 C 178.191406 143.3125 192.105469 157.242188 209.222656 157.242188 Z M 209.222656 157.242188 "/></g></svg>