<svg xmlns="http://www.w3.org/2000/svg" xmlns:xlink="http://www.w3.org/1999/xlink" width="500" zoomAndPan="magnify" viewBox="0 0 375 374.999991" height="500" preserveAspectRatio="xMidYMid meet" version="1.2"><defs><clipPath id="86781bfe94"><path d="M 0 46.640625 L 375 46.640625 L 375 328.640625 L 0 328.640625 Z M 0 46.640625 "/></clipPath></defs><g id="c36e43f0ea"><g clip-rule="nonzero" clip-path="url(#86781bfe94)"><path style=" stroke:none;fill-rule:nonzero;fill:#ffffff;fill-opacity:1;" d="M 354.050781 46.65625 L 52.875 46.65625 C 41.410156 46.65625 32.082031 55.984375 32.082031 67.449219 L 32.082031 200.785156 C 12.894531 213.105469 0.152344 234.640625 0.152344 259.089844 C 0.152344 297.273438 31.226562 328.34375 69.410156 328.34375 C 77.921875 328.34375 86.085938 326.796875 93.625 323.976562 L 354.058594 323.976562 C 365.523438 323.976562 374.855469 314.648438 374.855469 303.179688 L 374.855469 67.441406 C 374.847656 55.976562 365.519531 46.65625 354.050781 46.65625 Z M 9.480469 259.089844 C 9.480469 227.613281 33.875 201.726562 64.746094 199.339844 L 64.746094 259.089844 C 64.746094 261.660156 66.835938 263.753906 69.410156 263.753906 L 129.160156 263.753906 C 126.773438 294.621094 100.886719 319.015625 69.410156 319.015625 C 36.363281 319.015625 9.480469 292.132812 9.480469 259.089844 Z M 365.519531 303.179688 C 365.519531 309.5 360.371094 314.648438 354.050781 314.648438 L 110.71875 314.648438 C 127.671875 302.007812 138.671875 281.808594 138.671875 259.089844 C 138.671875 256.515625 136.582031 254.421875 134.007812 254.421875 L 74.082031 254.421875 L 74.082031 194.496094 C 74.082031 191.921875 71.992188 189.832031 69.417969 189.832031 C 59.460938 189.832031 49.984375 191.945312 41.417969 195.753906 L 41.417969 67.441406 C 41.417969 61.121094 46.5625 55.976562 52.882812 55.976562 L 354.066406 55.976562 C 360.386719 55.976562 365.53125 61.121094 365.53125 67.441406 L 365.53125 303.179688 Z M 216.039062 210.066406 L 177.519531 210.066406 C 174.945312 210.066406 172.855469 212.15625 172.855469 214.730469 L 172.855469 294.226562 C 172.855469 296.796875 174.945312 298.890625 177.519531 298.890625 L 216.039062 298.890625 C 218.609375 298.890625 220.703125 296.796875 220.703125 294.226562 L 220.703125 214.730469 C 220.703125 212.15625 218.617188 210.066406 216.039062 210.066406 Z M 211.371094 289.5625 L 182.183594 289.5625 L 182.183594 219.394531 L 211.371094 219.394531 Z M 279.742188 166.722656 L 241.222656 166.722656 C 238.652344 166.722656 236.558594 168.8125 236.558594 171.386719 L 236.558594 294.226562 C 236.558594 296.796875 238.652344 298.890625 241.222656 298.890625 L 279.742188 298.890625 C 282.316406 298.890625 284.40625 296.796875 284.40625 294.226562 L 284.40625 171.386719 C 284.40625 168.8125 282.324219 166.722656 279.742188 166.722656 Z M 275.078125 289.5625 L 245.886719 289.5625 L 245.886719 176.050781 L 275.078125 176.050781 Z M 343.449219 185.410156 L 304.929688 185.410156 C 302.355469 185.410156 300.265625 187.5 300.265625 190.074219 L 300.265625 294.226562 C 300.265625 296.796875 302.355469 298.890625 304.929688 298.890625 L 343.449219 298.890625 C 346.019531 298.890625 348.113281 296.796875 348.113281 294.226562 L 348.113281 190.074219 C 348.113281 187.492188 346.027344 185.410156 343.449219 185.410156 Z M 338.785156 289.5625 L 309.59375 289.5625 L 309.59375 194.738281 L 338.785156 194.738281 Z M 65.917969 108.636719 L 93.632812 108.636719 C 96.207031 108.636719 98.296875 106.542969 98.296875 103.972656 L 98.296875 76.257812 C 98.296875 73.683594 96.207031 71.59375 93.632812 71.59375 L 65.917969 71.59375 C 63.347656 71.59375 61.253906 73.683594 61.253906 76.257812 L 61.253906 103.972656 C 61.253906 106.542969 63.347656 108.636719 65.917969 108.636719 Z M 70.582031 80.921875 L 88.96875 80.921875 L 88.96875 99.308594 L 70.582031 99.308594 Z M 109.101562 80.621094 C 109.101562 78.046875 111.195312 75.957031 113.765625 75.957031 L 182.890625 75.957031 C 185.464844 75.957031 187.554688 78.046875 187.554688 80.621094 C 187.554688 83.191406 185.464844 85.285156 182.890625 85.285156 L 113.765625 85.285156 C 111.195312 85.285156 109.101562 83.191406 109.101562 80.621094 Z M 109.101562 99.609375 C 109.101562 97.039062 111.195312 94.945312 113.765625 94.945312 L 168.40625 94.945312 C 170.980469 94.945312 173.070312 97.039062 173.070312 99.609375 C 173.070312 102.183594 170.980469 104.273438 168.40625 104.273438 L 113.765625 104.273438 C 111.195312 104.273438 109.101562 102.191406 109.101562 99.609375 Z M 98.296875 148.59375 L 98.296875 120.878906 C 98.296875 118.304688 96.207031 116.214844 93.632812 116.214844 L 65.917969 116.214844 C 63.347656 116.214844 61.253906 118.304688 61.253906 120.878906 L 61.253906 148.59375 C 61.253906 151.164062 63.347656 153.257812 65.917969 153.257812 L 93.632812 153.257812 C 96.207031 153.257812 98.296875 151.164062 98.296875 148.59375 Z M 88.96875 143.929688 L 70.582031 143.929688 L 70.582031 125.542969 L 88.96875 125.542969 Z M 109.101562 125.234375 C 109.101562 122.660156 111.195312 120.570312 113.765625 120.570312 L 182.890625 120.570312 C 185.464844 120.570312 187.554688 122.660156 187.554688 125.234375 C 187.554688 127.804688 185.464844 129.898438 182.890625 129.898438 L 113.765625 129.898438 C 111.195312 129.898438 109.101562 127.8125 109.101562 125.234375 Z M 173.070312 144.230469 C 173.070312 146.804688 170.980469 148.894531 168.40625 148.894531 L 113.765625 148.894531 C 111.195312 148.894531 109.101562 146.804688 109.101562 144.230469 C 109.101562 141.660156 111.195312 139.566406 113.765625 139.566406 L 168.40625 139.566406 C 170.988281 139.566406 173.070312 141.652344 173.070312 144.230469 Z M 88.066406 171.175781 C 85.492188 171.175781 83.402344 173.265625 83.402344 175.839844 L 83.402344 240.429688 C 83.402344 243.003906 85.492188 245.09375 88.066406 245.09375 L 152.660156 245.09375 C 155.230469 245.09375 157.324219 243.003906 157.324219 240.429688 C 157.324219 202.246094 126.257812 171.175781 88.066406 171.175781 Z M 92.730469 235.765625 L 92.730469 180.683594 C 122.070312 182.953125 145.546875 206.429688 147.816406 235.765625 Z M 92.730469 235.765625 "/></g></g></svg>