<svg xmlns="http://www.w3.org/2000/svg" xmlns:xlink="http://www.w3.org/1999/xlink" width="500" zoomAndPan="magnify" viewBox="0 0 375 374.999991" height="500" preserveAspectRatio="xMidYMid meet" version="1.2"><defs><clipPath id="c0d096a895"><path d="M 3 146 L 372 146 L 372 300.796875 L 3 300.796875 Z M 3 146 "/></clipPath><clipPath id="efba37b2d3"><path d="M 12 74.296875 L 314 74.296875 L 314 264 L 12 264 Z M 12 74.296875 "/></clipPath></defs><g id="cfe5d75ddf"><g clip-rule="nonzero" clip-path="url(#c0d096a895)"><path style=" stroke:none;fill-rule:nonzero;fill:#ffffff;fill-opacity:1;" d="M 371.871094 156.28125 L 327.054688 146.699219 L 338.644531 166.867188 L 160.996094 270.027344 L 91.527344 239.195312 L 3.207031 287.414062 L 10.625 300.933594 L 92.222656 256.425781 L 161.921875 287.414062 L 346.292969 180.238281 L 357.652344 199.863281 Z M 371.871094 156.28125 "/></g><path style=" stroke:none;fill-rule:nonzero;fill:#ffffff;fill-opacity:1;" d="M 115.328125 215.472656 C 115.335938 211.867188 115.644531 208.285156 116.253906 204.730469 C 118.144531 208.839844 119.570312 213.101562 120.535156 217.519531 C 121.496094 221.9375 121.976562 226.40625 121.972656 230.925781 C 121.976562 226.40625 121.496094 221.9375 120.535156 217.519531 C 119.570312 213.101562 118.144531 208.839844 116.253906 204.730469 C 115.644531 208.285156 115.335938 211.867188 115.328125 215.472656 Z M 115.328125 215.472656 "/><g clip-rule="nonzero" clip-path="url(#efba37b2d3)"><path style=" stroke:none;fill-rule:nonzero;fill:#ffffff;fill-opacity:1;" d="M 116.253906 204.730469 C 114.859375 201.625 113.199219 198.667969 111.273438 195.859375 C 109.347656 193.050781 107.1875 190.4375 104.792969 188.015625 C 102.398438 185.59375 99.808594 183.40625 97.023438 181.449219 C 94.234375 179.496094 91.296875 177.800781 88.207031 176.371094 C 89.355469 175.617188 90.464844 174.804688 91.527344 173.933594 C 92.59375 173.0625 93.605469 172.132812 94.570312 171.152344 C 95.535156 170.171875 96.445312 169.144531 97.300781 168.066406 C 98.15625 166.988281 98.953125 165.867188 99.6875 164.703125 C 100.421875 163.542969 101.09375 162.34375 101.703125 161.109375 C 102.308594 159.875 102.847656 158.609375 103.320312 157.316406 C 103.792969 156.027344 104.195312 154.710938 104.527344 153.375 C 104.859375 152.042969 105.121094 150.691406 105.308594 149.328125 C 105.496094 147.964844 105.609375 146.597656 105.652344 145.222656 C 105.691406 143.847656 105.660156 142.472656 105.554688 141.101562 C 105.449219 139.730469 105.273438 138.367188 105.023438 137.015625 C 104.773438 135.660156 104.449219 134.324219 104.054688 133.007812 C 103.664062 131.6875 103.199219 130.394531 102.667969 129.125 C 102.136719 127.855469 101.539062 126.621094 100.875 125.414062 C 100.210938 124.210938 99.484375 123.042969 98.695312 121.914062 C 97.910156 120.789062 97.0625 119.707031 96.160156 118.667969 C 95.253906 117.632812 94.296875 116.644531 93.289062 115.710938 C 92.277344 114.773438 91.222656 113.898438 90.117188 113.074219 C 89.015625 112.253906 87.871094 111.492188 86.6875 110.792969 C 85.503906 110.089844 84.285156 109.457031 83.03125 108.886719 C 81.78125 108.316406 80.5 107.816406 79.195312 107.382812 C 77.886719 106.949219 76.5625 106.585938 75.21875 106.296875 C 73.875 106.003906 72.515625 105.785156 71.148438 105.640625 C 69.78125 105.492188 68.410156 105.417969 67.035156 105.417969 C 65.65625 105.417969 64.285156 105.492188 62.917969 105.640625 C 61.550781 105.785156 60.191406 106.003906 58.847656 106.296875 C 57.503906 106.585938 56.179688 106.949219 54.871094 107.382812 C 53.566406 107.816406 52.289062 108.316406 51.035156 108.886719 C 49.78125 109.457031 48.5625 110.089844 47.378906 110.792969 C 46.195312 111.492188 45.050781 112.253906 43.949219 113.074219 C 42.84375 113.898438 41.789062 114.773438 40.777344 115.710938 C 39.769531 116.644531 38.8125 117.632812 37.910156 118.667969 C 37.003906 119.707031 36.15625 120.789062 35.371094 121.914062 C 34.582031 123.042969 33.855469 124.210938 33.191406 125.414062 C 32.527344 126.621094 31.929688 127.855469 31.398438 129.125 C 30.867188 130.394531 30.402344 131.6875 30.011719 133.007812 C 29.617188 134.324219 29.296875 135.660156 29.042969 137.015625 C 28.792969 138.367188 28.617188 139.730469 28.511719 141.101562 C 28.40625 142.472656 28.375 143.847656 28.414062 145.222656 C 28.457031 146.597656 28.570312 147.964844 28.757812 149.328125 C 28.945312 150.691406 29.207031 152.042969 29.539062 153.375 C 29.871094 154.710938 30.273438 156.027344 30.746094 157.316406 C 31.21875 158.609375 31.757812 159.875 32.363281 161.109375 C 32.972656 162.34375 33.644531 163.542969 34.378906 164.703125 C 35.113281 165.867188 35.910156 166.988281 36.765625 168.066406 C 37.621094 169.144531 38.53125 170.171875 39.496094 171.152344 C 40.460938 172.132812 41.472656 173.0625 42.539062 173.933594 C 43.601562 174.804688 44.710938 175.617188 45.859375 176.371094 C 43.3125 177.59375 40.863281 178.992188 38.511719 180.5625 C 36.160156 182.136719 33.9375 183.867188 31.832031 185.753906 C 29.730469 187.644531 27.773438 189.675781 25.960938 191.84375 C 24.148438 194.015625 22.5 196.304688 21.015625 198.707031 C 19.527344 201.113281 18.222656 203.613281 17.09375 206.203125 C 15.964844 208.796875 15.027344 211.457031 14.277344 214.183594 C 13.53125 216.910156 12.980469 219.675781 12.625 222.480469 C 12.273438 225.285156 12.121094 228.101562 12.171875 230.925781 L 12.171875 263.765625 L 91.835938 218.023438 L 117.722656 229.613281 L 160.222656 247.773438 L 218.097656 215.007812 L 222.890625 211.839844 L 313.839844 160.378906 C 311.167969 157.152344 308.171875 154.265625 304.84375 151.722656 C 301.519531 149.179688 297.949219 147.039062 294.136719 145.308594 C 295.289062 144.558594 296.394531 143.746094 297.460938 142.871094 C 298.527344 142 299.542969 141.074219 300.511719 140.09375 C 301.476562 139.117188 302.386719 138.085938 303.246094 137.007812 C 304.101562 135.929688 304.898438 134.8125 305.636719 133.648438 C 306.371094 132.484375 307.042969 131.289062 307.652344 130.054688 C 308.261719 128.816406 308.804688 127.554688 309.277344 126.261719 C 309.75 124.96875 310.15625 123.65625 310.488281 122.320312 C 310.820312 120.984375 311.082031 119.636719 311.269531 118.269531 C 311.460938 116.90625 311.574219 115.539062 311.617188 114.164062 C 311.660156 112.785156 311.628906 111.414062 311.527344 110.039062 C 311.421875 108.667969 311.246094 107.304688 310.996094 105.949219 C 310.746094 104.597656 310.421875 103.261719 310.03125 101.941406 C 309.636719 100.621094 309.175781 99.328125 308.644531 98.058594 C 308.113281 96.789062 307.515625 95.550781 306.851562 94.34375 C 306.1875 93.136719 305.464844 91.96875 304.675781 90.839844 C 303.886719 89.710938 303.039062 88.628906 302.136719 87.589844 C 301.230469 86.554688 300.273438 85.566406 299.265625 84.628906 C 298.257812 83.695312 297.199219 82.816406 296.097656 81.992188 C 294.992188 81.171875 293.847656 80.410156 292.664062 79.707031 C 291.476562 79.007812 290.257812 78.371094 289.007812 77.800781 C 287.753906 77.230469 286.472656 76.730469 285.167969 76.296875 C 283.859375 75.863281 282.535156 75.5 281.191406 75.207031 C 279.84375 74.917969 278.488281 74.695312 277.117188 74.550781 C 275.75 74.402344 274.378906 74.332031 273 74.332031 C 271.625 74.332031 270.253906 74.402344 268.882812 74.550781 C 267.515625 74.695312 266.15625 74.917969 264.8125 75.207031 C 263.46875 75.5 262.140625 75.863281 260.835938 76.296875 C 259.527344 76.730469 258.25 77.230469 256.996094 77.800781 C 255.742188 78.371094 254.523438 79.007812 253.339844 79.707031 C 252.152344 80.410156 251.011719 81.171875 249.90625 81.992188 C 248.800781 82.816406 247.746094 83.695312 246.738281 84.628906 C 245.726562 85.566406 244.769531 86.554688 243.867188 87.589844 C 242.960938 88.628906 242.117188 89.710938 241.328125 90.839844 C 240.539062 91.96875 239.8125 93.136719 239.148438 94.34375 C 238.488281 95.550781 237.890625 96.789062 237.359375 98.058594 C 236.828125 99.328125 236.363281 100.621094 235.972656 101.941406 C 235.578125 103.261719 235.257812 104.597656 235.007812 105.949219 C 234.757812 107.304688 234.582031 108.667969 234.476562 110.039062 C 234.371094 111.414062 234.339844 112.785156 234.382812 114.164062 C 234.425781 115.539062 234.542969 116.90625 234.730469 118.269531 C 234.921875 119.636719 235.179688 120.984375 235.515625 122.320312 C 235.847656 123.65625 236.25 124.96875 236.726562 126.261719 C 237.199219 127.554688 237.738281 128.816406 238.347656 130.054688 C 238.957031 131.289062 239.628906 132.484375 240.367188 133.648438 C 241.105469 134.8125 241.902344 135.929688 242.757812 137.007812 C 243.613281 138.085938 244.527344 139.117188 245.492188 140.09375 C 246.457031 141.074219 247.476562 142 248.539062 142.871094 C 249.605469 143.746094 250.714844 144.558594 251.867188 145.308594 C 249.71875 146.359375 247.640625 147.535156 245.636719 148.835938 C 243.628906 150.140625 241.710938 151.5625 239.882812 153.101562 C 238.050781 154.636719 236.320312 156.285156 234.691406 158.035156 C 233.0625 159.785156 231.546875 161.628906 230.144531 163.566406 C 228.742188 165.5 227.460938 167.515625 226.304688 169.609375 C 225.148438 171.703125 224.125 173.859375 223.234375 176.078125 C 222.34375 178.296875 221.589844 180.5625 220.976562 182.875 C 220.363281 185.1875 219.894531 187.527344 219.566406 189.894531 C 218.386719 186.65625 216.894531 183.566406 215.082031 180.628906 C 213.273438 177.691406 211.1875 174.96875 208.820312 172.457031 C 206.457031 169.945312 203.863281 167.699219 201.039062 165.71875 C 198.21875 163.734375 195.222656 162.058594 192.058594 160.6875 C 193.203125 159.925781 194.304688 159.109375 195.359375 158.234375 C 196.414062 157.355469 197.421875 156.425781 198.378906 155.445312 C 199.335938 154.460938 200.238281 153.429688 201.085938 152.347656 C 201.933594 151.269531 202.722656 150.148438 203.449219 148.984375 C 204.179688 147.820312 204.84375 146.621094 205.441406 145.386719 C 206.042969 144.152344 206.574219 142.886719 207.039062 141.597656 C 207.507812 140.304688 207.902344 138.992188 208.226562 137.660156 C 208.550781 136.324219 208.804688 134.976562 208.988281 133.617188 C 209.171875 132.257812 209.28125 130.890625 209.316406 129.519531 C 209.351562 128.148438 209.316406 126.777344 209.207031 125.40625 C 209.097656 124.039062 208.914062 122.679688 208.660156 121.332031 C 208.40625 119.984375 208.078125 118.652344 207.683594 117.335938 C 207.285156 116.023438 206.820312 114.734375 206.289062 113.46875 C 205.753906 112.203125 205.152344 110.972656 204.488281 109.773438 C 203.824219 108.570312 203.097656 107.410156 202.308594 106.285156 C 201.519531 105.164062 200.671875 104.085938 199.769531 103.050781 C 198.863281 102.019531 197.90625 101.035156 196.898438 100.105469 C 195.890625 99.175781 194.835938 98.300781 193.734375 97.480469 C 192.628906 96.664062 191.488281 95.90625 190.304688 95.207031 C 189.125 94.511719 187.90625 93.878906 186.65625 93.3125 C 185.40625 92.746094 184.128906 92.246094 182.828125 91.816406 C 181.523438 91.382812 180.203125 91.023438 178.859375 90.734375 C 177.519531 90.441406 176.164062 90.226562 174.800781 90.078125 C 173.433594 89.933594 172.066406 89.859375 170.695312 89.859375 C 169.320312 89.859375 167.953125 89.933594 166.585938 90.078125 C 165.222656 90.226562 163.867188 90.441406 162.527344 90.734375 C 161.183594 91.023438 159.863281 91.382812 158.558594 91.816406 C 157.257812 92.246094 155.980469 92.746094 154.730469 93.3125 C 153.480469 93.878906 152.261719 94.511719 151.082031 95.207031 C 149.898438 95.90625 148.757812 96.664062 147.652344 97.480469 C 146.550781 98.300781 145.496094 99.175781 144.488281 100.105469 C 143.480469 101.035156 142.523438 102.019531 141.621094 103.050781 C 140.714844 104.085938 139.867188 105.164062 139.078125 106.285156 C 138.289062 107.410156 137.5625 108.570312 136.898438 109.773438 C 136.234375 110.972656 135.632812 112.203125 135.097656 113.46875 C 134.566406 114.734375 134.101562 116.023438 133.703125 117.335938 C 133.308594 118.652344 132.980469 119.984375 132.726562 121.332031 C 132.472656 122.679688 132.289062 124.039062 132.179688 125.40625 C 132.070312 126.777344 132.035156 128.148438 132.070312 129.519531 C 132.105469 130.890625 132.214844 132.257812 132.398438 133.617188 C 132.582031 134.976562 132.835938 136.324219 133.160156 137.660156 C 133.484375 138.992188 133.878906 140.304688 134.347656 141.597656 C 134.8125 142.886719 135.34375 144.152344 135.945312 145.386719 C 136.542969 146.621094 137.207031 147.820312 137.9375 148.984375 C 138.664062 150.148438 139.453125 151.269531 140.300781 152.347656 C 141.148438 153.429688 142.050781 154.460938 143.007812 155.445312 C 143.964844 156.425781 144.972656 157.355469 146.027344 158.234375 C 147.082031 159.109375 148.183594 159.925781 149.328125 160.6875 C 147.179688 161.703125 145.105469 162.84375 143.097656 164.113281 C 141.089844 165.382812 139.167969 166.769531 137.328125 168.273438 C 135.488281 169.777344 133.75 171.386719 132.105469 173.101562 C 130.464844 174.816406 128.929688 176.625 127.507812 178.527344 C 126.085938 180.429688 124.785156 182.410156 123.601562 184.46875 C 122.421875 186.53125 121.371094 188.65625 120.449219 190.84375 C 119.527344 193.03125 118.742188 195.269531 118.089844 197.554688 C 117.441406 199.839844 116.933594 202.152344 116.566406 204.5 "/></g></g></svg>