<svg xmlns="http://www.w3.org/2000/svg" xmlns:xlink="http://www.w3.org/1999/xlink" width="500" zoomAndPan="magnify" viewBox="0 0 375 374.999991" height="500" preserveAspectRatio="xMidYMid meet" version="1.2"><defs><clipPath id="c90dff5934"><path d="M 0 2.34375 L 375 2.34375 L 375 372.84375 L 0 372.84375 Z M 0 2.34375 "/></clipPath></defs><g id="062279c155"><g clip-rule="nonzero" clip-path="url(#c90dff5934)"><path style=" stroke:none;fill-rule:nonzero;fill:#ffffff;fill-opacity:1;" d="M 375.003906 8.324219 C 375.003906 5.054688 372.355469 2.40625 369.085938 2.40625 L 5.90625 2.40625 C 2.640625 2.40625 -0.0117188 5.054688 -0.0117188 8.324219 L -0.0117188 56.746094 C -0.0117188 60.015625 2.640625 62.664062 5.90625 62.664062 L 286.71875 62.664062 L 256.011719 92.203125 L 51.160156 92.203125 C 47.894531 92.203125 45.246094 94.851562 45.246094 98.121094 L 45.246094 146.542969 C 45.246094 146.585938 45.25 146.632812 45.25 146.675781 C 45.253906 146.808594 45.261719 146.941406 45.269531 147.070312 C 45.273438 147.117188 45.28125 147.160156 45.285156 147.207031 C 45.429688 148.597656 46.0625 149.941406 47.175781 150.957031 L 94.808594 194.351562 L 94.808594 240.160156 C 94.808594 243.429688 97.457031 246.078125 100.726562 246.078125 L 192.894531 246.078125 L 168.785156 273.976562 C 168.636719 274.148438 168.503906 274.324219 168.378906 274.503906 C 149.738281 282.082031 136.554688 300.382812 136.554688 321.714844 C 136.554688 349.804688 159.40625 372.65625 187.496094 372.65625 C 215.585938 372.65625 238.4375 349.804688 238.4375 321.714844 C 238.4375 319.214844 238.257812 316.703125 237.894531 314.25 C 237.417969 311.015625 234.417969 308.78125 231.179688 309.257812 C 227.945312 309.730469 225.710938 312.738281 226.1875 315.972656 C 226.464844 317.859375 226.605469 319.789062 226.605469 321.714844 C 226.605469 343.277344 209.058594 360.820312 187.496094 360.820312 C 165.933594 360.820312 148.386719 343.277344 148.386719 321.714844 C 148.386719 300.148438 165.933594 282.605469 187.496094 282.605469 C 193.378906 282.605469 199.027344 283.878906 204.289062 286.382812 C 207.238281 287.789062 210.769531 286.539062 212.175781 283.585938 C 213.582031 280.636719 212.328125 277.105469 209.378906 275.699219 C 202.515625 272.429688 195.152344 270.773438 187.496094 270.773438 C 187.394531 270.773438 187.292969 270.777344 187.191406 270.78125 L 208.539062 246.078125 L 260.855469 246.078125 L 245.890625 262.484375 C 243.6875 264.898438 243.859375 268.640625 246.273438 270.84375 C 247.40625 271.878906 248.835938 272.390625 250.261719 272.390625 C 251.867188 272.390625 253.464844 271.738281 254.632812 270.460938 L 278.636719 244.152344 C 278.667969 244.117188 278.691406 244.082031 278.722656 244.046875 C 278.796875 243.964844 278.867188 243.878906 278.933594 243.792969 C 278.988281 243.722656 279.039062 243.652344 279.089844 243.582031 C 279.152344 243.496094 279.207031 243.410156 279.265625 243.320312 C 279.3125 243.242188 279.359375 243.164062 279.40625 243.085938 C 279.457031 243 279.5 242.910156 279.546875 242.820312 C 279.589844 242.738281 279.632812 242.652344 279.667969 242.570312 C 279.710938 242.476562 279.746094 242.386719 279.78125 242.292969 C 279.816406 242.207031 279.847656 242.121094 279.878906 242.03125 C 279.910156 241.9375 279.9375 241.84375 279.964844 241.746094 C 279.988281 241.65625 280.011719 241.566406 280.035156 241.472656 C 280.054688 241.378906 280.070312 241.28125 280.089844 241.1875 C 280.105469 241.089844 280.121094 240.992188 280.132812 240.894531 C 280.144531 240.800781 280.152344 240.710938 280.160156 240.617188 C 280.167969 240.511719 280.175781 240.40625 280.175781 240.300781 C 280.179688 240.253906 280.183594 240.207031 280.183594 240.160156 L 280.183594 191.738281 C 280.183594 188.46875 277.535156 185.820312 274.265625 185.820312 L 171.132812 185.820312 L 135.402344 152.460938 L 323.832031 152.460938 C 327.097656 152.460938 329.746094 149.808594 329.746094 146.542969 L 329.746094 100.726562 L 372.808594 61.339844 C 373.792969 60.542969 374.511719 59.433594 374.824219 58.164062 C 374.832031 58.140625 374.835938 58.117188 374.84375 58.09375 C 374.875 57.953125 374.902344 57.808594 374.925781 57.664062 C 374.933594 57.605469 374.941406 57.550781 374.949219 57.492188 C 374.964844 57.378906 374.972656 57.265625 374.980469 57.148438 C 374.988281 57.054688 374.992188 56.964844 374.996094 56.871094 C 374.996094 56.828125 375.003906 56.789062 375.003906 56.746094 Z M 11.824219 14.242188 L 363.167969 14.242188 L 363.167969 50.828125 L 11.824219 50.828125 Z M 303.792969 62.664062 L 353.828125 62.664062 L 321.53125 92.203125 L 273.082031 92.203125 Z M 268.347656 234.246094 L 106.644531 234.246094 L 106.644531 197.65625 L 268.347656 197.65625 Z M 153.792969 185.820312 L 103.015625 185.820312 L 66.398438 152.460938 L 118.058594 152.460938 Z M 317.914062 140.625 L 57.078125 140.625 L 57.078125 104.039062 L 317.910156 104.039062 L 317.910156 140.625 Z M 317.914062 140.625 "/></g><path style=" stroke:none;fill-rule:nonzero;fill:#ffffff;fill-opacity:1;" d="M 226.644531 283.058594 L 185.300781 324.398438 L 176.175781 315.273438 C 173.863281 312.960938 170.117188 312.960938 167.808594 315.273438 C 165.496094 317.582031 165.496094 321.328125 167.808594 323.640625 L 181.117188 336.949219 C 182.273438 338.105469 183.789062 338.683594 185.300781 338.683594 C 186.816406 338.683594 188.332031 338.105469 189.488281 336.949219 L 235.011719 291.425781 C 237.324219 289.113281 237.324219 285.367188 235.011719 283.058594 C 232.703125 280.746094 228.957031 280.746094 226.644531 283.058594 Z M 226.644531 283.058594 "/></g></svg>