<svg xmlns="http://www.w3.org/2000/svg" xmlns:xlink="http://www.w3.org/1999/xlink" width="500" zoomAndPan="magnify" viewBox="0 0 375 374.999991" height="500" preserveAspectRatio="xMidYMid meet" version="1.2"><defs><clipPath id="410528fcdd"><path d="M 7.03125 0 L 365 0 L 365 372 L 7.03125 372 Z M 7.03125 0 "/></clipPath></defs><g id="a5e9509c48"><g clip-rule="nonzero" clip-path="url(#410528fcdd)"><path style=" stroke:none;fill-rule:evenodd;fill:#000000;fill-opacity:1;" d="M 159.132812 0 C 118.804688 0 80.132812 16.027344 51.617188 44.558594 C 23.101562 73.085938 7.082031 111.78125 7.082031 152.128906 C 7.082031 192.476562 23.101562 231.167969 51.617188 259.699219 C 80.132812 288.230469 118.804688 304.257812 159.132812 304.257812 C 184.449219 304.121094 209.332031 297.664062 231.519531 285.46875 L 306.171875 361.40625 C 319.351562 374.8125 340.753906 374.992188 354.15625 361.804688 C 367.554688 348.613281 367.730469 327.203125 354.550781 313.796875 L 282.476562 240.480469 C 301.019531 214.746094 311.054688 183.855469 311.183594 152.128906 C 311.183594 111.78125 295.164062 73.085938 266.648438 44.558594 C 238.132812 16.027344 199.460938 0 159.132812 0 Z M 160.871094 44.234375 C 187.816406 44.234375 213.65625 55.445312 232.710938 75.402344 C 251.761719 95.359375 262.46875 122.425781 262.46875 150.648438 C 262.398438 181.234375 249.769531 210.3125 227.800781 230.464844 C 227.308594 230.894531 226.824219 231.339844 226.351562 231.804688 C 226.089844 232.066406 225.835938 232.335938 225.582031 232.601562 C 207.382812 248.390625 184.5 257.039062 160.871094 257.0625 C 133.925781 257.0625 108.082031 245.851562 89.03125 225.894531 C 69.976562 205.9375 59.273438 178.871094 59.273438 150.648438 C 59.273438 122.425781 69.976562 95.359375 89.03125 75.402344 C 108.082031 55.445312 133.925781 44.234375 160.871094 44.234375 Z M 160.871094 44.234375 "/></g></g></svg>