<svg xmlns="http://www.w3.org/2000/svg" xmlns:xlink="http://www.w3.org/1999/xlink" width="500" zoomAndPan="magnify" viewBox="0 0 375 374.999991" height="500" preserveAspectRatio="xMidYMid meet" version="1.2"><defs><clipPath id="660f8982d4"><path d="M 50.113281 0 L 324.613281 0 L 324.613281 375 L 50.113281 375 Z M 50.113281 0 "/></clipPath></defs><g id="0a06e1b262"><g clip-rule="nonzero" clip-path="url(#660f8982d4)"><path style=" stroke:none;fill-rule:nonzero;fill:#ffffff;fill-opacity:1;" d="M 312.136719 50.066406 L 274.703125 50.066406 C 274.703125 43.203125 269.089844 37.589844 262.226562 37.589844 L 235.527344 37.589844 C 229.910156 16.128906 210.570312 0.15625 187.363281 0.15625 C 164.15625 0.15625 144.816406 16.128906 139.203125 37.589844 L 112.5 37.589844 C 105.636719 37.589844 100.023438 43.203125 100.023438 50.066406 L 62.589844 50.066406 C 55.726562 50.066406 50.113281 55.679688 50.113281 62.542969 L 50.113281 361.996094 C 50.113281 368.859375 55.726562 374.476562 62.589844 374.476562 L 312.136719 374.476562 C 319 374.476562 324.613281 368.859375 324.613281 361.996094 L 324.613281 62.542969 C 324.613281 55.679688 319 50.066406 312.136719 50.066406 Z M 187.363281 25.113281 C 196.597656 25.113281 204.457031 30.226562 208.824219 37.589844 L 165.902344 37.589844 C 170.269531 30.226562 178.253906 25.113281 187.363281 25.113281 Z M 249.75 62.542969 L 249.75 75.019531 L 124.976562 75.019531 L 124.976562 62.542969 Z M 287.183594 349.519531 L 87.546875 349.519531 C 80.683594 349.519531 75.066406 343.90625 75.066406 337.042969 L 75.066406 87.496094 C 75.066406 80.636719 80.683594 75.019531 87.546875 75.019531 L 100.023438 75.019531 L 100.023438 87.496094 C 100.023438 94.359375 105.636719 99.976562 112.5 99.976562 L 262.226562 99.976562 C 269.089844 99.976562 274.703125 94.359375 274.703125 87.496094 L 274.703125 75.019531 L 287.183594 75.019531 C 294.042969 75.019531 299.660156 80.636719 299.660156 87.496094 L 299.660156 337.042969 C 299.660156 343.90625 294.042969 349.519531 287.183594 349.519531 Z M 158.417969 141.398438 C 163.28125 146.265625 163.28125 154.125 158.417969 158.992188 L 133.710938 183.699219 C 131.214844 186.191406 128.097656 187.316406 124.851562 187.316406 C 121.609375 187.316406 118.488281 186.066406 115.992188 183.699219 L 103.515625 171.21875 C 98.648438 166.355469 98.648438 158.492188 103.515625 153.628906 C 108.382812 148.761719 116.242188 148.761719 121.109375 153.628906 L 124.726562 157.246094 L 140.574219 141.398438 C 145.441406 136.535156 153.300781 136.535156 158.167969 141.398438 Z M 274.703125 162.363281 C 274.703125 169.222656 269.089844 174.839844 262.226562 174.839844 L 199.839844 174.839844 C 192.976562 174.839844 187.363281 169.222656 187.363281 162.363281 C 187.363281 155.5 192.976562 149.882812 199.839844 149.882812 L 262.226562 149.882812 C 269.089844 149.882812 274.703125 155.5 274.703125 162.363281 Z M 158.417969 203.785156 C 163.28125 208.652344 163.28125 216.511719 158.417969 221.378906 L 133.710938 246.085938 C 131.214844 248.578125 128.097656 249.703125 124.851562 249.703125 C 121.609375 249.703125 118.488281 248.453125 115.992188 246.085938 L 103.515625 233.605469 C 98.648438 228.742188 98.648438 220.878906 103.515625 216.015625 C 108.382812 211.148438 116.242188 211.148438 121.109375 216.015625 L 124.726562 219.632812 L 140.574219 203.785156 C 145.441406 198.917969 153.300781 198.917969 158.167969 203.785156 Z M 274.703125 224.746094 C 274.703125 231.609375 269.089844 237.226562 262.226562 237.226562 L 199.839844 237.226562 C 192.976562 237.226562 187.363281 231.609375 187.363281 224.746094 C 187.363281 217.886719 192.976562 212.269531 199.839844 212.269531 L 262.226562 212.269531 C 269.089844 212.269531 274.703125 217.886719 274.703125 224.746094 Z M 158.417969 266.171875 C 163.28125 271.039062 163.28125 278.898438 158.417969 283.765625 L 133.710938 308.46875 C 131.214844 310.964844 128.097656 312.089844 124.851562 312.089844 C 121.609375 312.089844 118.488281 310.839844 115.992188 308.46875 L 103.515625 295.992188 C 98.648438 291.128906 98.648438 283.265625 103.515625 278.398438 C 108.382812 273.535156 116.242188 273.535156 121.109375 278.398438 L 124.726562 282.019531 L 140.574219 266.171875 C 145.441406 261.304688 153.300781 261.304688 158.167969 266.171875 Z M 274.703125 287.132812 C 274.703125 293.996094 269.089844 299.613281 262.226562 299.613281 L 199.839844 299.613281 C 192.976562 299.613281 187.363281 293.996094 187.363281 287.132812 C 187.363281 280.273438 192.976562 274.65625 199.839844 274.65625 L 262.226562 274.65625 C 269.089844 274.65625 274.703125 280.273438 274.703125 287.132812 Z M 274.703125 287.132812 "/></g></g></svg>