<svg xmlns="http://www.w3.org/2000/svg" xmlns:xlink="http://www.w3.org/1999/xlink" width="500" zoomAndPan="magnify" viewBox="0 0 375 374.999991" height="500" preserveAspectRatio="xMidYMid meet" version="1.2"><defs><clipPath id="c317304878"><path d="M 130 65.390625 L 245 65.390625 L 245 180 L 130 180 Z M 130 65.390625 "/></clipPath><clipPath id="255489fedb"><path d="M 81 195 L 294 195 L 294 309.890625 L 81 309.890625 Z M 81 195 "/></clipPath><clipPath id="130bf2b7d5"><path d="M 0 228 L 89 228 L 89 309.890625 L 0 309.890625 Z M 0 228 "/></clipPath><clipPath id="a5a459fd59"><path d="M 286 228 L 375 228 L 375 309.890625 L 286 309.890625 Z M 286 228 "/></clipPath></defs><g id="d763a21678"><g clip-rule="nonzero" clip-path="url(#c317304878)"><path style=" stroke:none;fill-rule:nonzero;fill:#ffffff;fill-opacity:1;" d="M 244.484375 122.375 C 244.484375 124.242188 244.394531 126.101562 244.210938 127.960938 C 244.027344 129.816406 243.753906 131.660156 243.390625 133.492188 C 243.023438 135.324219 242.574219 137.128906 242.03125 138.917969 C 241.488281 140.703125 240.859375 142.457031 240.148438 144.183594 C 239.433594 145.90625 238.636719 147.589844 237.753906 149.238281 C 236.875 150.882812 235.917969 152.480469 234.878906 154.035156 C 233.84375 155.585938 232.734375 157.082031 231.550781 158.527344 C 230.367188 159.96875 229.113281 161.347656 227.792969 162.667969 C 226.472656 163.988281 225.09375 165.242188 223.652344 166.425781 C 222.207031 167.609375 220.710938 168.71875 219.160156 169.753906 C 217.605469 170.792969 216.007812 171.75 214.363281 172.628906 C 212.714844 173.511719 211.03125 174.308594 209.308594 175.023438 C 207.582031 175.734375 205.828125 176.363281 204.042969 176.90625 C 202.253906 177.449219 200.449219 177.898438 198.617188 178.265625 C 196.785156 178.628906 194.941406 178.902344 193.085938 179.085938 C 191.226562 179.269531 189.367188 179.359375 187.5 179.359375 C 185.632812 179.359375 183.773438 179.269531 181.914062 179.085938 C 180.058594 178.902344 178.214844 178.628906 176.382812 178.265625 C 174.550781 177.898438 172.746094 177.449219 170.957031 176.90625 C 169.171875 176.363281 167.417969 175.734375 165.691406 175.023438 C 163.96875 174.308594 162.285156 173.511719 160.636719 172.628906 C 158.992188 171.75 157.394531 170.792969 155.839844 169.753906 C 154.289062 168.71875 152.792969 167.609375 151.347656 166.425781 C 149.90625 165.242188 148.527344 163.988281 147.207031 162.667969 C 145.886719 161.347656 144.632812 159.96875 143.449219 158.527344 C 142.265625 157.082031 141.15625 155.585938 140.121094 154.035156 C 139.082031 152.480469 138.125 150.882812 137.246094 149.238281 C 136.363281 147.589844 135.566406 145.90625 134.851562 144.183594 C 134.140625 142.457031 133.511719 140.703125 132.96875 138.917969 C 132.425781 137.128906 131.976562 135.324219 131.609375 133.492188 C 131.246094 131.660156 130.972656 129.816406 130.789062 127.960938 C 130.605469 126.101562 130.515625 124.242188 130.515625 122.375 C 130.515625 120.507812 130.605469 118.648438 130.789062 116.789062 C 130.972656 114.933594 131.246094 113.089844 131.609375 111.257812 C 131.976562 109.425781 132.425781 107.621094 132.96875 105.832031 C 133.511719 104.046875 134.140625 102.292969 134.851562 100.566406 C 135.566406 98.84375 136.363281 97.160156 137.246094 95.511719 C 138.125 93.867188 139.082031 92.269531 140.121094 90.714844 C 141.15625 89.164062 142.265625 87.667969 143.449219 86.222656 C 144.632812 84.78125 145.886719 83.402344 147.207031 82.082031 C 148.527344 80.761719 149.90625 79.507812 151.347656 78.324219 C 152.792969 77.140625 154.289062 76.03125 155.839844 74.996094 C 157.394531 73.957031 158.992188 73 160.636719 72.121094 C 162.285156 71.238281 163.96875 70.441406 165.691406 69.726562 C 167.417969 69.015625 169.171875 68.386719 170.957031 67.84375 C 172.746094 67.300781 174.550781 66.851562 176.382812 66.484375 C 178.214844 66.121094 180.058594 65.847656 181.914062 65.664062 C 183.773438 65.480469 185.632812 65.390625 187.5 65.390625 C 189.367188 65.390625 191.226562 65.480469 193.085938 65.664062 C 194.941406 65.847656 196.785156 66.121094 198.617188 66.484375 C 200.449219 66.851562 202.253906 67.300781 204.042969 67.84375 C 205.828125 68.386719 207.582031 69.015625 209.308594 69.726562 C 211.03125 70.441406 212.714844 71.238281 214.363281 72.121094 C 216.007812 73 217.605469 73.957031 219.160156 74.996094 C 220.710938 76.03125 222.207031 77.140625 223.652344 78.324219 C 225.09375 79.507812 226.472656 80.761719 227.792969 82.082031 C 229.113281 83.402344 230.367188 84.78125 231.550781 86.222656 C 232.734375 87.667969 233.84375 89.164062 234.878906 90.714844 C 235.917969 92.269531 236.875 93.867188 237.753906 95.511719 C 238.636719 97.160156 239.433594 98.84375 240.148438 100.566406 C 240.859375 102.292969 241.488281 104.046875 242.03125 105.832031 C 242.574219 107.621094 243.023438 109.425781 243.390625 111.257812 C 243.753906 113.089844 244.027344 114.933594 244.210938 116.789062 C 244.394531 118.648438 244.484375 120.507812 244.484375 122.375 Z M 244.484375 122.375 "/></g><path style=" stroke:none;fill-rule:nonzero;fill:#ffffff;fill-opacity:1;" d="M 342.171875 171.21875 C 342.171875 172.550781 342.105469 173.882812 341.976562 175.207031 C 341.84375 176.535156 341.648438 177.851562 341.390625 179.160156 C 341.128906 180.46875 340.804688 181.757812 340.417969 183.035156 C 340.03125 184.308594 339.582031 185.5625 339.074219 186.796875 C 338.5625 188.027344 337.992188 189.230469 337.367188 190.40625 C 336.738281 191.582031 336.054688 192.722656 335.3125 193.832031 C 334.570312 194.941406 333.777344 196.011719 332.933594 197.039062 C 332.085938 198.070312 331.191406 199.058594 330.25 200 C 329.308594 200.941406 328.320312 201.835938 327.289062 202.683594 C 326.261719 203.527344 325.191406 204.320312 324.082031 205.0625 C 322.972656 205.804688 321.832031 206.488281 320.65625 207.117188 C 319.480469 207.742188 318.277344 208.3125 317.046875 208.824219 C 315.8125 209.332031 314.558594 209.78125 313.285156 210.167969 C 312.007812 210.554688 310.71875 210.878906 309.410156 211.140625 C 308.101562 211.398438 306.785156 211.59375 305.457031 211.726562 C 304.132812 211.855469 302.800781 211.921875 301.46875 211.921875 C 300.136719 211.921875 298.804688 211.855469 297.480469 211.726562 C 296.152344 211.59375 294.835938 211.398438 293.527344 211.140625 C 292.21875 210.878906 290.929688 210.554688 289.652344 210.167969 C 288.378906 209.78125 287.125 209.332031 285.890625 208.824219 C 284.660156 208.3125 283.457031 207.742188 282.28125 207.117188 C 281.105469 206.488281 279.964844 205.804688 278.855469 205.0625 C 277.746094 204.320312 276.675781 203.527344 275.648438 202.683594 C 274.617188 201.835938 273.628906 200.941406 272.6875 200 C 271.746094 199.058594 270.851562 198.070312 270.003906 197.039062 C 269.160156 196.011719 268.367188 194.941406 267.625 193.832031 C 266.882812 192.722656 266.199219 191.582031 265.570312 190.40625 C 264.945312 189.230469 264.375 188.027344 263.863281 186.796875 C 263.355469 185.5625 262.90625 184.308594 262.519531 183.035156 C 262.132812 181.757812 261.808594 180.46875 261.546875 179.160156 C 261.289062 177.851562 261.09375 176.535156 260.960938 175.207031 C 260.832031 173.882812 260.765625 172.550781 260.765625 171.21875 C 260.765625 169.886719 260.832031 168.554688 260.960938 167.230469 C 261.09375 165.902344 261.289062 164.585938 261.546875 163.277344 C 261.808594 161.96875 262.132812 160.679688 262.519531 159.402344 C 262.90625 158.128906 263.355469 156.875 263.863281 155.640625 C 264.375 154.410156 264.945312 153.207031 265.570312 152.03125 C 266.199219 150.855469 266.882812 149.714844 267.625 148.605469 C 268.367188 147.496094 269.160156 146.425781 270.003906 145.398438 C 270.851562 144.367188 271.746094 143.378906 272.6875 142.4375 C 273.628906 141.496094 274.617188 140.601562 275.648438 139.753906 C 276.675781 138.910156 277.746094 138.117188 278.855469 137.375 C 279.964844 136.632812 281.105469 135.949219 282.28125 135.320312 C 283.457031 134.695312 284.660156 134.125 285.890625 133.613281 C 287.125 133.105469 288.378906 132.65625 289.652344 132.269531 C 290.929688 131.882812 292.21875 131.558594 293.527344 131.296875 C 294.835938 131.039062 296.152344 130.84375 297.480469 130.710938 C 298.804688 130.582031 300.136719 130.515625 301.46875 130.515625 C 302.800781 130.515625 304.132812 130.582031 305.457031 130.710938 C 306.785156 130.84375 308.101562 131.039062 309.410156 131.296875 C 310.71875 131.558594 312.007812 131.882812 313.285156 132.269531 C 314.558594 132.65625 315.8125 133.105469 317.046875 133.613281 C 318.277344 134.125 319.480469 134.695312 320.65625 135.320312 C 321.832031 135.949219 322.972656 136.632812 324.082031 137.375 C 325.191406 138.117188 326.261719 138.910156 327.289062 139.753906 C 328.320312 140.601562 329.308594 141.496094 330.25 142.4375 C 331.191406 143.378906 332.085938 144.367188 332.933594 145.398438 C 333.777344 146.425781 334.570312 147.496094 335.3125 148.605469 C 336.054688 149.714844 336.738281 150.855469 337.367188 152.03125 C 337.992188 153.207031 338.5625 154.410156 339.074219 155.640625 C 339.582031 156.875 340.03125 158.128906 340.417969 159.402344 C 340.804688 160.679688 341.128906 161.96875 341.390625 163.277344 C 341.648438 164.585938 341.84375 165.902344 341.976562 167.230469 C 342.105469 168.554688 342.171875 169.886719 342.171875 171.21875 Z M 342.171875 171.21875 "/><path style=" stroke:none;fill-rule:nonzero;fill:#ffffff;fill-opacity:1;" d="M 115.390625 171.21875 C 115.390625 172.550781 115.324219 173.882812 115.195312 175.207031 C 115.0625 176.535156 114.867188 177.851562 114.609375 179.160156 C 114.347656 180.46875 114.023438 181.757812 113.636719 183.035156 C 113.25 184.308594 112.800781 185.5625 112.292969 186.796875 C 111.78125 188.027344 111.210938 189.230469 110.585938 190.40625 C 109.957031 191.582031 109.269531 192.722656 108.53125 193.832031 C 107.789062 194.941406 106.996094 196.011719 106.152344 197.039062 C 105.304688 198.070312 104.410156 199.058594 103.46875 200 C 102.527344 200.941406 101.539062 201.835938 100.507812 202.683594 C 99.480469 203.527344 98.410156 204.320312 97.300781 205.0625 C 96.191406 205.804688 95.050781 206.488281 93.875 207.117188 C 92.699219 207.742188 91.496094 208.3125 90.261719 208.824219 C 89.03125 209.332031 87.777344 209.78125 86.503906 210.167969 C 85.226562 210.554688 83.933594 210.878906 82.628906 211.140625 C 81.320312 211.398438 80.003906 211.59375 78.675781 211.726562 C 77.351562 211.855469 76.019531 211.921875 74.6875 211.921875 C 73.355469 211.921875 72.023438 211.855469 70.699219 211.726562 C 69.371094 211.59375 68.054688 211.398438 66.746094 211.140625 C 65.4375 210.878906 64.148438 210.554688 62.871094 210.167969 C 61.597656 209.78125 60.34375 209.332031 59.109375 208.824219 C 57.878906 208.3125 56.675781 207.742188 55.5 207.117188 C 54.324219 206.488281 53.183594 205.804688 52.074219 205.0625 C 50.964844 204.320312 49.894531 203.527344 48.867188 202.683594 C 47.835938 201.835938 46.847656 200.941406 45.90625 200 C 44.964844 199.058594 44.070312 198.070312 43.222656 197.039062 C 42.378906 196.011719 41.585938 194.941406 40.84375 193.832031 C 40.101562 192.722656 39.417969 191.582031 38.789062 190.40625 C 38.160156 189.230469 37.59375 188.027344 37.082031 186.796875 C 36.574219 185.5625 36.125 184.308594 35.738281 183.035156 C 35.351562 181.757812 35.027344 180.46875 34.765625 179.160156 C 34.507812 177.851562 34.3125 176.535156 34.179688 175.207031 C 34.050781 173.882812 33.984375 172.550781 33.984375 171.21875 C 33.984375 169.886719 34.050781 168.554688 34.179688 167.230469 C 34.3125 165.902344 34.507812 164.585938 34.765625 163.277344 C 35.027344 161.96875 35.351562 160.679688 35.738281 159.402344 C 36.125 158.128906 36.574219 156.875 37.082031 155.640625 C 37.59375 154.410156 38.160156 153.207031 38.789062 152.03125 C 39.417969 150.855469 40.101562 149.714844 40.84375 148.605469 C 41.585938 147.496094 42.378906 146.425781 43.222656 145.398438 C 44.070312 144.367188 44.964844 143.378906 45.90625 142.4375 C 46.847656 141.496094 47.835938 140.601562 48.867188 139.753906 C 49.894531 138.910156 50.964844 138.117188 52.074219 137.375 C 53.183594 136.632812 54.324219 135.949219 55.5 135.320312 C 56.675781 134.695312 57.878906 134.125 59.109375 133.613281 C 60.34375 133.105469 61.597656 132.65625 62.871094 132.269531 C 64.148438 131.882812 65.4375 131.558594 66.746094 131.296875 C 68.054688 131.039062 69.371094 130.84375 70.699219 130.710938 C 72.023438 130.582031 73.355469 130.515625 74.6875 130.515625 C 76.019531 130.515625 77.351562 130.582031 78.675781 130.710938 C 80.003906 130.84375 81.320312 131.039062 82.628906 131.296875 C 83.933594 131.558594 85.226562 131.882812 86.503906 132.269531 C 87.777344 132.65625 89.03125 133.105469 90.261719 133.613281 C 91.496094 134.125 92.699219 134.695312 93.875 135.320312 C 95.050781 135.949219 96.191406 136.632812 97.300781 137.375 C 98.410156 138.117188 99.480469 138.910156 100.507812 139.753906 C 101.539062 140.601562 102.527344 141.496094 103.46875 142.4375 C 104.410156 143.378906 105.304688 144.367188 106.152344 145.398438 C 106.996094 146.425781 107.789062 147.496094 108.53125 148.605469 C 109.269531 149.714844 109.957031 150.855469 110.585938 152.03125 C 111.210938 153.207031 111.78125 154.410156 112.292969 155.640625 C 112.800781 156.875 113.25 158.128906 113.636719 159.402344 C 114.023438 160.679688 114.347656 161.96875 114.609375 163.277344 C 114.867188 164.585938 115.0625 165.902344 115.195312 167.230469 C 115.324219 168.554688 115.390625 169.886719 115.390625 171.21875 Z M 115.390625 171.21875 "/><g clip-rule="nonzero" clip-path="url(#255489fedb)"><path style=" stroke:none;fill-rule:nonzero;fill:#ffffff;fill-opacity:1;" d="M 187.5 195.640625 C 129.148438 195.640625 81.671875 243.117188 81.671875 301.46875 C 81.671875 305.960938 85.320312 309.609375 89.8125 309.609375 L 285.1875 309.609375 C 289.679688 309.609375 293.328125 305.960938 293.328125 301.46875 C 293.328125 243.117188 245.851562 195.640625 187.5 195.640625 Z M 187.5 195.640625 "/></g><g clip-rule="nonzero" clip-path="url(#130bf2b7d5)"><path style=" stroke:none;fill-rule:nonzero;fill:#ffffff;fill-opacity:1;" d="M 88.722656 229.960938 C 83.738281 228.902344 78.675781 228.203125 73.53125 228.203125 C 33.136719 228.203125 0.265625 261.074219 0.265625 301.46875 C 0.265625 305.960938 3.914062 309.609375 8.40625 309.609375 L 66.886719 309.609375 C 65.976562 307.054688 65.390625 304.335938 65.390625 301.46875 C 65.390625 274.75 74.117188 250.085938 88.722656 229.960938 Z M 88.722656 229.960938 "/></g><g clip-rule="nonzero" clip-path="url(#a5a459fd59)"><path style=" stroke:none;fill-rule:nonzero;fill:#ffffff;fill-opacity:1;" d="M 301.46875 228.203125 C 296.324219 228.203125 291.261719 228.902344 286.277344 229.960938 C 300.882812 250.085938 309.609375 274.75 309.609375 301.46875 C 309.609375 304.335938 309.023438 307.054688 308.113281 309.609375 L 366.59375 309.609375 C 371.085938 309.609375 374.734375 305.960938 374.734375 301.46875 C 374.734375 261.074219 341.863281 228.203125 301.46875 228.203125 Z M 301.46875 228.203125 "/></g></g></svg>